<?xml version="1.0" encoding="utf-8"?>
<!-- Generator: Adobe Illustrator 22.1.0, SVG Export Plug-In . SVG Version: 6.00 Build 0)  -->
<svg version="1.1" id="iconos" xmlns="http://www.w3.org/2000/svg" xmlns:xlink="http://www.w3.org/1999/xlink" x="0px" y="0px"
	 viewBox="0 0 260.22 260.22" enable-background="new 0 0 260.22 260.22" xml:space="preserve">
<polygon fill="#F3EEE3" points="34.066,59.94 34.066,69.351 24.656,69.351 34.066,78.761 24.656,88.172 34.066,88.172 
	34.066,97.583 43.477,88.172 52.887,97.583 52.887,88.172 62.298,88.172 52.887,78.761 62.298,69.351 52.887,69.351 52.887,59.94 
	43.477,69.351 "/>
<polygon fill="#F3EEE3" points="217.377,58.998 217.377,64.148 212.227,64.148 217.377,69.298 212.227,74.448 217.377,74.448 
	217.377,79.599 222.528,74.448 227.678,79.599 227.678,74.448 232.828,74.448 227.678,69.298 232.828,64.148 227.678,64.148 
	227.678,58.998 222.528,64.148 "/>
<path fill="#FF5100" d="M206.007,31.068l0.002-0.002c0,0-12.128-4.043-24.256,8.085c-12.128,12.128-8.085,24.256-8.085,24.256
	l-0.002,0.002c0,0,12.13,4.041,24.256-8.085C210.051,43.194,206.007,31.068,206.007,31.068z"/>
<path fill="#FF5100" d="M95.198,51.828l-0.001-0.001c0,0-2.972,8.916,5.944,17.832s17.832,5.944,17.832,5.944l0.001,0.001
	c0,0,2.971-8.917-5.944-17.832C104.113,48.855,95.198,51.828,95.198,51.828z"/>
<path fill="#DDDC26" d="M184.323,119.397h21.685v-10.971h-21.685c-10.843,0-10.843,10.843-10.843,10.843v32.527h-21.685v-86.74
	h32.528V54.213H173.48V31.691h-10.843v22.521h-10.843h-1.254h-9.588v97.583h-21.685V75.898h-10.843h-0.418H97.583V54.213H86.74
	v21.685H75.898V86.74h32.11v10.843h-32.11v10.843h32.11v43.37H86.74v-10.843V130.11H75.898H46.363v10.843h29.535v10.843v30.855
	v45.042h108.425v-53.794h21.685v-11.261h-21.685v-10.843V119.397z"/>
<path fill="#FF5100" d="M205.505,173.814L205.505,173.814c-0.001-0.001-1.624,4.87,3.247,9.741s9.741,3.247,9.741,3.247l0.001,0.001
	c0,0,1.623-4.871-3.247-9.741C210.375,172.19,205.505,173.814,205.505,173.814z"/>
<path fill="#FF5100" d="M97.736,116.824L97.736,116.824c0,0-1.292,3.875,2.583,7.751c3.876,3.876,7.752,2.584,7.752,2.584l0,0
	c0,0,1.291-3.876-2.584-7.752C101.612,115.531,97.736,116.824,97.736,116.824z"/>
<path fill="#FF5100" d="M22.128,108.605l-0.001-0.001c0,0-2.724,8.172,5.448,16.345s16.345,5.448,16.345,5.448l0.001,0.001
	c0,0,2.723-8.173-5.448-16.345C30.299,105.88,22.128,108.605,22.128,108.605z"/>
<path fill="#FF5100" d="M56.819,99.486v-0.001c0,0-7.761,3.88-7.761,15.521s7.761,15.521,7.761,15.521v0.001
	c0,0,7.761-3.882,7.761-15.521C64.58,103.365,56.819,99.486,56.819,99.486z"/>
<path fill="#FF5100" d="M54.976,33.885l-0.002-0.002c0,0-3.952,11.856,7.904,23.711s23.711,7.904,23.711,7.904l0.002,0.002
	c0,0,3.95-11.857-7.904-23.711C66.83,29.931,54.976,33.885,54.976,33.885z"/>
<path fill="#FF5100" d="M143.245,20.43v-0.002c0,0-8.341,4.17-8.341,16.682s8.341,16.681,8.341,16.681v0.002
	c0,0,8.341-4.172,8.341-16.682C151.586,24.599,143.245,20.43,143.245,20.43z"/>
<path fill="#FF5100" d="M147.321,113.059l-0.001-0.001c0,0-2.972,8.916,5.944,17.832s17.832,5.944,17.832,5.944l0.001,0.001
	c0,0,2.971-8.917-5.944-17.832C156.236,110.086,147.321,113.059,147.321,113.059z"/>
<polygon fill="#29E4B6" points="31.096,55.297 31.096,64.707 21.685,64.707 31.096,74.118 21.685,83.529 31.096,83.529 
	31.096,92.939 40.506,83.529 49.917,92.939 49.917,83.529 59.328,83.529 49.917,74.118 59.328,64.707 49.917,64.707 49.917,55.297 
	40.506,64.707 "/>
<path fill="#FF5100" d="M190.308,77.801V77.8c0,0-7.656,3.828-7.656,15.312s7.656,15.312,7.656,15.312v0.001
	c0,0,7.656-3.829,7.656-15.312C197.964,81.628,190.308,77.801,190.308,77.801z"/>
<path fill="#FF5100" d="M126.133,116.686l-10.826,10.826c0,0-1.353-4.06,2.707-8.12
	C122.073,115.333,126.133,116.686,126.133,116.686z"/>
<path fill="#FF5100" d="M115.306,127.513l10.826-10.826c0,0,1.354,4.059-2.707,8.12
	C119.366,128.866,115.306,127.513,115.306,127.513z"/>
<path fill="#FF5100" d="M125.403,137.824l10.826,10.826c0,0,1.353-4.06-2.707-8.12C129.463,136.471,125.403,137.824,125.403,137.824
	z"/>
<path fill="#FF5100" d="M136.23,148.651l-10.826-10.826c0,0-1.354,4.059,2.707,8.12C132.17,150.004,136.23,148.651,136.23,148.651z"
	/>
<polygon fill="#01A3FE" points="32.528,259.937 130.11,86.74 227.693,259.937 "/>
<polygon fill="#A32E3E" points="93.617,260.22 130.15,173.48 166.684,260.22 "/>
<polygon fill="#29E4B6" points="103.817,10.843 103.817,15.993 98.667,15.993 103.817,21.143 98.667,26.293 103.817,26.293 
	103.817,31.443 108.967,26.293 114.118,31.443 114.118,26.293 119.268,26.293 114.118,21.143 119.268,15.993 114.118,15.993 
	114.118,10.843 108.967,15.993 "/>
<polygon fill="#29E4B6" points="212.242,54.213 212.242,59.363 207.092,59.363 212.242,64.513 207.092,69.663 212.242,69.663 
	212.242,74.813 217.393,69.663 222.543,74.813 222.543,69.663 227.693,69.663 222.543,64.513 227.693,59.363 222.543,59.363 
	222.543,54.213 217.393,59.363 "/>
<path fill="#FF5100" d="M195.567,129.708l0.001-0.001c0,0-8.12-2.707-16.241,5.414s-5.414,16.241-5.414,16.241l-0.001,0.001
	c0,0,8.121,2.706,16.241-5.414C198.275,137.828,195.567,129.708,195.567,129.708z"/>
<path fill="#FF5100" d="M162.831,71.105l0.001-0.001c0,0-8.12-2.707-16.241,5.414s-5.414,16.241-5.414,16.241l-0.001,0.001
	c0,0,8.121,2.706,16.241-5.414C165.538,79.225,162.831,71.105,162.831,71.105z"/>
</svg>
