<?xml version="1.0" encoding="utf-8"?>
<!-- Generator: Adobe Illustrator 22.1.0, SVG Export Plug-In . SVG Version: 6.00 Build 0)  -->
<svg version="1.1" id="formas" xmlns="http://www.w3.org/2000/svg" xmlns:xlink="http://www.w3.org/1999/xlink" x="0px" y="0px"
	 viewBox="0 0 1366 768" enable-background="new 0 0 1366 768" xml:space="preserve">
<g opacity="0.99">
	<g>
		<g>
			<g>
				<g>
					<path fill="none" d="M934.853,218.138c-0.004,1.481-0.148,2.955-0.256,4.43l4.53,0.413c0.117-1.57,0.266-3.139,0.273-4.715
						L934.853,218.138z"/>
					<path fill-rule="evenodd" clip-rule="evenodd" fill="#E1E03E" d="M936.863,222.775c-1.249-0.121-2.191-1.205-2.098-2.42
						c0.094-1.215,1.093-2.182,2.362-2.152c1.239,0.028,2.279,1.115,2.179,2.423C939.208,221.934,938.111,222.896,936.863,222.775z"
						/>
				</g>
			</g>
			<g>
				<g>
					<path fill="none" d="M934.127,226.559c-0.254,1.456-0.479,2.92-0.803,4.362l4.447,0.957c0.345-1.537,0.587-3.096,0.855-4.647
						L934.127,226.559z"/>
					<path fill-rule="evenodd" clip-rule="evenodd" fill="#E1E03E" d="M935.548,231.4c-1.215-0.269-1.996-1.453-1.8-2.656
						c0.213-1.199,1.405-2.024,2.629-1.849c1.258,0.181,2.075,1.372,1.846,2.664C938.011,230.854,936.782,231.673,935.548,231.4z"/>
				</g>
			</g>
			<g>
				<g>
					<polygon fill="none" points="932.36,234.821 931.754,236.954 931.042,239.055 935.34,240.545 936.097,238.306 936.744,236.033
											"/>
					<path fill-rule="evenodd" clip-rule="evenodd" fill="#E1E03E" d="M933.192,239.8c-1.183-0.418-1.829-1.693-1.438-2.847
						c0.333-1.171,1.587-1.854,2.799-1.527c1.21,0.327,1.905,1.617,1.544,2.879C935.677,239.549,934.374,240.218,933.192,239.8z"/>
				</g>
			</g>
			<g>
				<g>
					<path fill="none" d="M929.624,242.813c-0.564,1.366-1.185,2.71-1.82,4.044l4.085,2c0.678-1.421,1.338-2.853,1.939-4.309
						L929.624,242.813z"/>
					<path fill-rule="evenodd" clip-rule="evenodd" fill="#E1E03E" d="M929.848,247.858c-1.111-0.552-1.605-1.9-1.111-3.013
						c0.516-1.104,1.84-1.631,2.99-1.164c1.174,0.477,1.711,1.843,1.157,3.033C932.351,247.914,930.984,248.422,929.848,247.858z"/>
				</g>
			</g>
			<g>
				<g>
					<polygon fill="none" points="925.927,250.409 924.821,252.333 923.627,254.203 927.441,256.682 928.712,254.69 929.89,252.642
											"/>
					<path fill-rule="evenodd" clip-rule="evenodd" fill="#E1E03E" d="M925.535,255.443c-1.05-0.691-1.364-2.081-0.714-3.11
						c0.606-1.056,1.991-1.416,3.088-0.806c1.096,0.609,1.458,2.026,0.803,3.163C928.013,255.799,926.581,256.131,925.535,255.443z"
						/>
				</g>
			</g>
			<g>
				<g>
					<path fill="none" d="M921.348,257.512c-0.876,1.191-1.798,2.35-2.737,3.492l3.489,2.919c1-1.215,1.981-2.45,2.914-3.718
						L921.348,257.512z"/>
					<path fill-rule="evenodd" clip-rule="evenodd" fill="#E1E03E" d="M920.356,262.464c-0.947-0.802-1.102-2.227-0.356-3.191
						c0.765-0.949,2.176-1.143,3.182-0.414c1.025,0.744,1.219,2.199,0.397,3.222C922.775,263.118,921.324,263.283,920.356,262.464z"
						/>
				</g>
			</g>
			<g>
				<g>
					<polygon fill="none" points="915.939,264.005 914.408,265.611 912.802,267.142 915.915,270.458 917.625,268.828
						919.255,267.119 					"/>
					<path fill-rule="evenodd" clip-rule="evenodd" fill="#E1E03E" d="M914.359,268.801c-0.854-0.92-0.833-2.35,0.049-3.19
						c0.84-0.882,2.27-0.902,3.189-0.049c0.919,0.853,0.933,2.316,0.027,3.265C916.676,269.734,915.212,269.72,914.359,268.801z"/>
				</g>
			</g>
			<g>
				<g>
					<path fill="none" d="M909.8,269.814c-1.142,0.939-2.301,1.861-3.492,2.737l2.693,3.666c1.268-0.933,2.503-1.914,3.718-2.914
						L909.8,269.814z"/>
					<path fill-rule="evenodd" clip-rule="evenodd" fill="#E1E03E" d="M907.656,274.385c-0.73-1.005-0.534-2.418,0.415-3.182
						c0.964-0.745,2.388-0.59,3.19,0.357c0.819,0.968,0.655,2.419-0.382,3.222C909.855,275.604,908.4,275.41,907.656,274.385z"/>
				</g>
			</g>
			<g>
				<g>
					<polygon fill="none" points="902.999,274.831 901.129,276.025 899.206,277.13 901.438,281.093 903.486,279.915
						905.478,278.645 					"/>
					<path fill-rule="evenodd" clip-rule="evenodd" fill="#E1E03E" d="M900.323,279.113c-0.609-1.097-0.249-2.482,0.807-3.088
						c1.03-0.65,2.418-0.336,3.109,0.714c0.688,1.046,0.357,2.477-0.752,3.176C902.35,280.57,900.932,280.209,900.323,279.113z"/>
				</g>
			</g>
			<g>
				<g>
					<path fill="none" d="M895.654,279.008c-1.334,0.635-2.679,1.256-4.044,1.82l1.736,4.204c1.455-0.601,2.888-1.261,4.309-1.939
						L895.654,279.008z"/>
					<path fill-rule="evenodd" clip-rule="evenodd" fill="#E1E03E" d="M892.478,282.931c-0.467-1.151,0.061-2.475,1.164-2.991
						c1.113-0.494,2.46,0,3.012,1.111c0.564,1.136,0.056,2.503-1.143,3.036C894.322,284.642,892.955,284.104,892.478,282.931z"/>
				</g>
			</g>
			<g>
				<g>
					<polygon fill="none" points="887.851,282.246 885.751,282.957 883.617,283.563 884.83,287.947 887.103,287.3 889.341,286.544
											"/>
					<path fill-rule="evenodd" clip-rule="evenodd" fill="#E1E03E" d="M884.224,285.756c-0.328-1.212,0.356-2.466,1.527-2.799
						c1.153-0.391,2.428,0.255,2.846,1.439c0.418,1.182-0.25,2.485-1.494,2.905C885.841,287.661,884.551,286.966,884.224,285.756z"
						/>
				</g>
			</g>
			<g>
				<g>
					<path fill="none" d="M879.718,284.527c-1.442,0.324-2.906,0.55-4.362,0.803l0.672,4.499c1.551-0.268,3.11-0.51,4.647-0.855
						L879.718,284.527z"/>
					<path fill-rule="evenodd" clip-rule="evenodd" fill="#E1E03E" d="M875.692,287.581c-0.176-1.225,0.651-2.417,1.85-2.629
						c1.203-0.196,2.386,0.585,2.655,1.8c0.273,1.234-0.544,2.462-1.84,2.675C877.064,289.656,875.872,288.839,875.692,287.581z"/>
				</g>
			</g>
			<g>
				<g>
					<path fill="none" d="M871.365,285.801c-1.475,0.108-2.949,0.251-4.43,0.256l0.129,4.547c1.575-0.007,3.144-0.156,4.715-0.273
						L871.365,285.801z"/>
					<path fill-rule="evenodd" clip-rule="evenodd" fill="#E1E03E" d="M866.999,288.331c-0.029-1.269,0.939-2.267,2.153-2.362
						c1.215-0.093,2.298,0.849,2.419,2.098c0.121,1.248-0.84,2.344-2.148,2.443C868.115,290.61,867.027,289.57,866.999,288.331z"/>
				</g>
			</g>
			<g>
				<g>
					<path fill="none" d="M862.915,286.056c-1.481-0.004-2.955-0.148-4.43-0.256l-0.413,4.53c1.57,0.117,3.139,0.266,4.715,0.273
						L862.915,286.056z"/>
					<path fill-rule="evenodd" clip-rule="evenodd" fill="#E1E03E" d="M858.278,288.067c0.121-1.249,1.205-2.191,2.42-2.098
						c1.215,0.095,2.182,1.093,2.152,2.362c-0.028,1.239-1.115,2.279-2.423,2.179C859.12,290.411,858.157,289.315,858.278,288.067z"
						/>
				</g>
			</g>
			<g>
				<g>
					<path fill="none" d="M854.494,285.331c-1.456-0.254-2.92-0.479-4.362-0.803l-0.957,4.447c1.537,0.345,3.096,0.587,4.647,0.855
						L854.494,285.331z"/>
					<path fill-rule="evenodd" clip-rule="evenodd" fill="#E1E03E" d="M849.654,286.752c0.269-1.215,1.453-1.996,2.656-1.8
						c1.199,0.213,2.024,1.405,1.849,2.629c-0.181,1.258-1.372,2.075-2.664,1.846C850.199,289.214,849.381,287.986,849.654,286.752z
						"/>
				</g>
			</g>
			<g>
				<g>
					<polygon fill="none" points="846.233,283.563 844.099,282.957 841.999,282.246 840.509,286.544 842.747,287.3 845.02,287.947
											"/>
					<path fill-rule="evenodd" clip-rule="evenodd" fill="#E1E03E" d="M841.253,284.396c0.418-1.183,1.694-1.829,2.847-1.438
						c1.171,0.333,1.854,1.587,1.527,2.799c-0.327,1.21-1.617,1.905-2.879,1.544C841.504,286.881,840.836,285.578,841.253,284.396z"
						/>
				</g>
			</g>
			<g>
				<g>
					<path fill="none" d="M838.24,280.828c-1.366-0.564-2.71-1.185-4.044-1.82l-2,4.085c1.421,0.678,2.853,1.338,4.309,1.939
						L838.24,280.828z"/>
					<path fill-rule="evenodd" clip-rule="evenodd" fill="#E1E03E" d="M833.195,281.051c0.552-1.111,1.9-1.605,3.013-1.111
						c1.104,0.516,1.631,1.84,1.164,2.99c-0.477,1.174-1.843,1.711-3.033,1.157C833.14,283.554,832.631,282.187,833.195,281.051z"/>
				</g>
			</g>
			<g>
				<g>
					<polygon fill="none" points="830.644,277.13 828.721,276.025 826.851,274.831 824.372,278.645 826.364,279.915
						828.412,281.093 					"/>
					<path fill-rule="evenodd" clip-rule="evenodd" fill="#E1E03E" d="M825.611,276.738c0.691-1.05,2.081-1.364,3.11-0.714
						c1.056,0.606,1.416,1.991,0.806,3.088c-0.609,1.096-2.026,1.458-3.163,0.803C825.254,279.216,824.923,277.784,825.611,276.738z
						"/>
				</g>
			</g>
			<g>
				<g>
					<path fill="none" d="M823.542,272.551c-1.191-0.876-2.35-1.798-3.492-2.737l-2.919,3.489c1.215,1,2.45,1.981,3.718,2.914
						L823.542,272.551z"/>
					<path fill-rule="evenodd" clip-rule="evenodd" fill="#E1E03E" d="M818.59,271.56c0.802-0.947,2.227-1.102,3.191-0.356
						c0.949,0.765,1.143,2.176,0.414,3.182c-0.744,1.025-2.199,1.219-3.222,0.397C817.935,273.979,817.771,272.527,818.59,271.56z"
						/>
				</g>
			</g>
			<g>
				<g>
					<polygon fill="none" points="817.048,267.142 815.442,265.611 813.911,264.005 810.595,267.119 812.225,268.828
						813.935,270.458 					"/>
					<path fill-rule="evenodd" clip-rule="evenodd" fill="#E1E03E" d="M812.252,265.562c0.92-0.854,2.35-0.833,3.19,0.049
						c0.882,0.84,0.902,2.27,0.049,3.189c-0.853,0.919-2.316,0.933-3.265,0.027C811.32,267.88,811.333,266.415,812.252,265.562z"/>
				</g>
			</g>
			<g>
				<g>
					<path fill="none" d="M811.239,261.004c-0.939-1.142-1.861-2.301-2.737-3.492l-3.666,2.693c0.933,1.268,1.914,2.503,2.914,3.718
						L811.239,261.004z"/>
					<path fill-rule="evenodd" clip-rule="evenodd" fill="#E1E03E" d="M806.668,258.859c1.005-0.73,2.418-0.534,3.182,0.415
						c0.745,0.964,0.59,2.388-0.357,3.19c-0.968,0.819-2.419,0.655-3.222-0.382C805.45,261.059,805.644,259.603,806.668,258.859z"/>
				</g>
			</g>
			<g>
				<g>
					<polygon fill="none" points="806.223,254.203 805.029,252.333 803.923,250.409 799.96,252.642 801.138,254.69 802.409,256.682
											"/>
					<path fill-rule="evenodd" clip-rule="evenodd" fill="#E1E03E" d="M801.941,251.526c1.097-0.609,2.482-0.249,3.088,0.807
						c0.65,1.03,0.336,2.418-0.714,3.109c-1.046,0.688-2.477,0.357-3.177-0.752C800.484,253.553,800.845,252.135,801.941,251.526z"
						/>
				</g>
			</g>
			<g>
				<g>
					<path fill="none" d="M802.046,246.858c-0.635-1.334-1.256-2.678-1.82-4.044l-4.205,1.736c0.601,1.455,1.261,2.888,1.939,4.309
						L802.046,246.858z"/>
					<path fill-rule="evenodd" clip-rule="evenodd" fill="#E1E03E" d="M798.123,243.682c1.151-0.467,2.475,0.061,2.991,1.164
						c0.494,1.113,0,2.46-1.111,3.012c-1.136,0.564-2.503,0.056-3.036-1.143C796.412,245.525,796.949,244.158,798.123,243.682z"/>
				</g>
			</g>
			<g>
				<g>
					<polygon fill="none" points="798.808,239.055 798.096,236.954 797.49,234.821 793.106,236.033 793.753,238.306 794.51,240.545
											"/>
					<path fill-rule="evenodd" clip-rule="evenodd" fill="#E1E03E" d="M795.297,235.427c1.212-0.328,2.466,0.356,2.799,1.527
						c0.391,1.153-0.255,2.428-1.439,2.846c-1.182,0.418-2.485-0.25-2.905-1.494C793.392,237.045,794.087,235.754,795.297,235.427z"
						/>
				</g>
			</g>
			<g>
				<g>
					<path fill="none" d="M796.526,230.921c-0.324-1.442-0.55-2.906-0.803-4.362l-4.499,0.672c0.268,1.551,0.51,3.11,0.855,4.647
						L796.526,230.921z"/>
					<path fill-rule="evenodd" clip-rule="evenodd" fill="#E1E03E" d="M793.472,226.895c1.225-0.176,2.417,0.651,2.629,1.85
						c0.196,1.203-0.585,2.386-1.8,2.655c-1.234,0.273-2.462-0.544-2.675-1.84C791.397,228.268,792.214,227.076,793.472,226.895z"/>
				</g>
			</g>
			<g>
				<g>
					<path fill="none" d="M795.253,222.568c-0.108-1.475-0.251-2.949-0.256-4.43l-4.547,0.128c0.007,1.575,0.156,3.144,0.273,4.715
						L795.253,222.568z"/>
					<path fill-rule="evenodd" clip-rule="evenodd" fill="#E1E03E" d="M792.722,218.203c1.269-0.029,2.267,0.939,2.362,2.153
						c0.093,1.215-0.849,2.298-2.098,2.419c-1.248,0.121-2.344-0.84-2.443-2.148C790.444,219.319,791.484,218.23,792.722,218.203z"
						/>
				</g>
			</g>
			<g>
				<g>
					<path fill="none" d="M794.997,214.119c0.004-1.481,0.148-2.955,0.256-4.43l-4.53-0.413c-0.117,1.57-0.266,3.139-0.273,4.715
						L794.997,214.119z"/>
					<path fill-rule="evenodd" clip-rule="evenodd" fill="#E1E03E" d="M792.987,209.482c1.249,0.121,2.191,1.205,2.098,2.42
						c-0.095,1.215-1.093,2.182-2.362,2.152c-1.239-0.028-2.279-1.115-2.179-2.423C790.642,210.323,791.739,209.361,792.987,209.482
						z"/>
				</g>
			</g>
			<g>
				<g>
					<path fill="none" d="M795.723,205.698c0.254-1.456,0.479-2.92,0.803-4.362l-4.447-0.957c-0.345,1.537-0.587,3.096-0.855,4.647
						L795.723,205.698z"/>
					<path fill-rule="evenodd" clip-rule="evenodd" fill="#E1E03E" d="M794.302,200.857c1.215,0.269,1.996,1.453,1.8,2.656
						c-0.213,1.199-1.404,2.024-2.629,1.849c-1.258-0.181-2.075-1.372-1.846-2.664C791.839,201.403,793.068,200.584,794.302,200.857
						z"/>
				</g>
			</g>
			<g>
				<g>
					<polygon fill="none" points="797.49,197.436 798.096,195.303 798.808,193.202 794.51,191.712 793.753,193.951 793.106,196.224
											"/>
					<path fill-rule="evenodd" clip-rule="evenodd" fill="#E1E03E" d="M796.658,192.457c1.183,0.418,1.829,1.693,1.438,2.847
						c-0.333,1.171-1.587,1.854-2.799,1.527c-1.21-0.327-1.905-1.617-1.544-2.879C794.173,192.708,795.476,192.039,796.658,192.457z
						"/>
				</g>
			</g>
			<g>
				<g>
					<path fill="none" d="M800.226,189.444c0.564-1.366,1.185-2.71,1.82-4.044l-4.085-2c-0.678,1.421-1.338,2.853-1.939,4.309
						L800.226,189.444z"/>
					<path fill-rule="evenodd" clip-rule="evenodd" fill="#E1E03E" d="M800.002,184.399c1.111,0.552,1.605,1.9,1.111,3.013
						c-0.516,1.104-1.839,1.631-2.99,1.164c-1.174-0.477-1.711-1.843-1.157-3.033C797.499,184.343,798.866,183.834,800.002,184.399z
						"/>
				</g>
			</g>
			<g>
				<g>
					<polygon fill="none" points="803.923,181.847 805.029,179.924 806.223,178.054 802.409,175.575 801.138,177.567
						799.96,179.615 					"/>
					<path fill-rule="evenodd" clip-rule="evenodd" fill="#E1E03E" d="M804.315,176.814c1.05,0.691,1.364,2.081,0.714,3.11
						c-0.606,1.056-1.991,1.416-3.088,0.806c-1.096-0.609-1.458-2.026-0.803-3.163C801.837,176.458,803.269,176.126,804.315,176.814
						z"/>
				</g>
			</g>
			<g>
				<g>
					<path fill="none" d="M808.502,174.745c0.876-1.191,1.798-2.35,2.737-3.492l-3.489-2.919c-1,1.215-1.981,2.45-2.914,3.718
						L808.502,174.745z"/>
					<path fill-rule="evenodd" clip-rule="evenodd" fill="#E1E03E" d="M809.494,169.793c0.947,0.802,1.102,2.227,0.356,3.191
						c-0.765,0.949-2.177,1.143-3.182,0.414c-1.025-0.744-1.219-2.199-0.397-3.222C807.075,169.139,808.526,168.974,809.494,169.793
						z"/>
				</g>
			</g>
			<g>
				<g>
					<polygon fill="none" points="813.911,168.252 815.442,166.645 817.048,165.115 813.935,161.798 812.225,163.429
						810.595,165.138 					"/>
					<path fill-rule="evenodd" clip-rule="evenodd" fill="#E1E03E" d="M815.491,163.456c0.854,0.92,0.833,2.35-0.049,3.19
						c-0.84,0.882-2.27,0.902-3.189,0.049c-0.919-0.853-0.933-2.316-0.027-3.265C813.174,162.523,814.638,162.537,815.491,163.456z"
						/>
				</g>
			</g>
			<g>
				<g>
					<path fill="none" d="M820.05,162.442c1.142-0.939,2.301-1.861,3.492-2.737l-2.693-3.666c-1.268,0.933-2.503,1.914-3.718,2.914
						L820.05,162.442z"/>
					<path fill-rule="evenodd" clip-rule="evenodd" fill="#E1E03E" d="M822.194,157.872c0.729,1.005,0.534,2.418-0.415,3.182
						c-0.964,0.745-2.388,0.59-3.19-0.357c-0.819-0.968-0.655-2.419,0.382-3.222C819.995,156.653,821.45,156.847,822.194,157.872z"
						/>
				</g>
			</g>
			<g>
				<g>
					<polygon fill="none" points="826.851,157.426 828.721,156.232 830.644,155.127 828.412,151.163 826.364,152.342
						824.372,153.612 					"/>
					<path fill-rule="evenodd" clip-rule="evenodd" fill="#E1E03E" d="M829.527,153.144c0.609,1.097,0.249,2.482-0.807,3.088
						c-1.03,0.65-2.418,0.336-3.109-0.714c-0.688-1.046-0.357-2.477,0.752-3.176C827.5,151.687,828.918,152.048,829.527,153.144z"/>
				</g>
			</g>
			<g>
				<g>
					<path fill="none" d="M834.196,153.249c1.334-0.635,2.678-1.256,4.044-1.82l-1.736-4.204c-1.455,0.601-2.888,1.261-4.309,1.939
						L834.196,153.249z"/>
					<path fill-rule="evenodd" clip-rule="evenodd" fill="#E1E03E" d="M837.372,149.326c0.467,1.151-0.061,2.475-1.164,2.991
						c-1.113,0.494-2.46,0-3.012-1.111c-0.564-1.136-0.056-2.503,1.143-3.036C835.528,147.615,836.895,148.153,837.372,149.326z"/>
				</g>
			</g>
			<g>
				<g>
					<polygon fill="none" points="841.999,150.011 844.099,149.3 846.233,148.694 845.02,144.31 842.747,144.956 840.509,145.713
											"/>
					<path fill-rule="evenodd" clip-rule="evenodd" fill="#E1E03E" d="M845.626,146.501c0.328,1.212-0.356,2.466-1.528,2.799
						c-1.153,0.391-2.428-0.255-2.846-1.439c-0.418-1.182,0.25-2.485,1.494-2.905C844.009,144.596,845.299,145.291,845.626,146.501z
						"/>
				</g>
			</g>
			<g>
				<g>
					<path fill="none" d="M850.132,147.73c1.442-0.324,2.906-0.55,4.362-0.803l-0.672-4.499c-1.551,0.268-3.11,0.51-4.647,0.855
						L850.132,147.73z"/>
					<path fill-rule="evenodd" clip-rule="evenodd" fill="#E1E03E" d="M854.158,144.676c0.176,1.225-0.651,2.417-1.85,2.629
						c-1.203,0.196-2.386-0.585-2.655-1.8c-0.273-1.234,0.544-2.462,1.84-2.675C852.786,142.601,853.977,143.418,854.158,144.676z"
						/>
				</g>
			</g>
			<g>
				<g>
					<path fill="none" d="M858.485,146.456c1.475-0.108,2.949-0.251,4.43-0.256l-0.128-4.547c-1.575,0.007-3.144,0.156-4.715,0.273
						L858.485,146.456z"/>
					<path fill-rule="evenodd" clip-rule="evenodd" fill="#E1E03E" d="M862.851,143.926c0.029,1.269-0.939,2.267-2.153,2.362
						c-1.215,0.093-2.298-0.849-2.419-2.098c-0.121-1.248,0.84-2.344,2.148-2.443C861.735,141.647,862.823,142.687,862.851,143.926z
						"/>
				</g>
			</g>
			<g>
				<g>
					<path fill="none" d="M866.935,146.2c1.481,0.004,2.955,0.148,4.43,0.256l0.413-4.53c-1.57-0.117-3.139-0.266-4.715-0.273
						L866.935,146.2z"/>
					<path fill-rule="evenodd" clip-rule="evenodd" fill="#E1E03E" d="M871.571,144.19c-0.121,1.249-1.205,2.191-2.42,2.098
						c-1.215-0.095-2.182-1.093-2.152-2.362c0.028-1.239,1.115-2.279,2.423-2.179C870.73,141.846,871.693,142.942,871.571,144.19z"
						/>
				</g>
			</g>
			<g>
				<g>
					<path fill="none" d="M875.356,146.926c1.456,0.254,2.92,0.479,4.362,0.803l0.957-4.447c-1.537-0.345-3.096-0.587-4.647-0.855
						L875.356,146.926z"/>
					<path fill-rule="evenodd" clip-rule="evenodd" fill="#E1E03E" d="M880.196,145.505c-0.269,1.215-1.453,1.996-2.656,1.8
						c-1.199-0.213-2.024-1.405-1.849-2.629c0.181-1.258,1.372-2.075,2.664-1.846C879.651,143.043,880.469,144.271,880.196,145.505z
						"/>
				</g>
			</g>
			<g>
				<g>
					<polygon fill="none" points="883.617,148.694 885.751,149.3 887.851,150.011 889.341,145.713 887.103,144.956 884.83,144.31
											"/>
					<path fill-rule="evenodd" clip-rule="evenodd" fill="#E1E03E" d="M888.597,147.861c-0.418,1.183-1.693,1.829-2.847,1.438
						c-1.171-0.333-1.854-1.587-1.527-2.799c0.327-1.21,1.617-1.905,2.878-1.544C888.346,145.376,889.014,146.679,888.597,147.861z"
						/>
				</g>
			</g>
			<g>
				<g>
					<path fill="none" d="M891.61,151.429c1.366,0.564,2.71,1.185,4.044,1.82l2-4.085c-1.421-0.678-2.853-1.338-4.309-1.939
						L891.61,151.429z"/>
					<path fill-rule="evenodd" clip-rule="evenodd" fill="#E1E03E" d="M896.655,151.206c-0.552,1.111-1.9,1.605-3.013,1.111
						c-1.104-0.516-1.631-1.84-1.164-2.99c0.477-1.174,1.843-1.711,3.033-1.157C896.71,148.703,897.219,150.07,896.655,151.206z"/>
				</g>
			</g>
			<g>
				<g>
					<polygon fill="none" points="899.206,155.127 901.129,156.232 902.999,157.426 905.478,153.612 903.486,152.342
						901.438,151.163 					"/>
					<path fill-rule="evenodd" clip-rule="evenodd" fill="#E1E03E" d="M904.239,155.518c-0.691,1.05-2.081,1.364-3.11,0.714
						c-1.056-0.606-1.416-1.991-0.806-3.088c0.609-1.096,2.026-1.458,3.163-0.803C904.596,153.041,904.927,154.473,904.239,155.518z
						"/>
				</g>
			</g>
			<g>
				<g>
					<path fill="none" d="M906.308,159.706c1.191,0.876,2.35,1.798,3.492,2.737l2.919-3.489c-1.215-1-2.45-1.981-3.718-2.914
						L906.308,159.706z"/>
					<path fill-rule="evenodd" clip-rule="evenodd" fill="#E1E03E" d="M911.26,160.697c-0.802,0.947-2.227,1.102-3.191,0.356
						c-0.949-0.765-1.143-2.176-0.414-3.182c0.744-1.025,2.199-1.219,3.221-0.397C911.915,158.278,912.079,159.73,911.26,160.697z"
						/>
				</g>
			</g>
			<g>
				<g>
					<polygon fill="none" points="912.802,165.115 914.408,166.645 915.939,168.252 919.255,165.138 917.625,163.429
						915.915,161.798 					"/>
					<path fill-rule="evenodd" clip-rule="evenodd" fill="#E1E03E" d="M917.598,166.694c-0.92,0.854-2.35,0.833-3.19-0.049
						c-0.882-0.84-0.902-2.27-0.049-3.189c0.853-0.919,2.316-0.933,3.265-0.027C918.53,164.377,918.517,165.841,917.598,166.694z"/>
				</g>
			</g>
			<g>
				<g>
					<path fill="none" d="M918.611,171.253c0.939,1.142,1.861,2.301,2.737,3.492l3.666-2.693c-0.933-1.268-1.914-2.503-2.914-3.718
						L918.611,171.253z"/>
					<path fill-rule="evenodd" clip-rule="evenodd" fill="#E1E03E" d="M923.182,173.398c-1.005,0.73-2.418,0.534-3.182-0.415
						c-0.745-0.964-0.59-2.388,0.357-3.19c0.968-0.819,2.419-0.655,3.222,0.382C924.4,171.198,924.206,172.654,923.182,173.398z"/>
				</g>
			</g>
			<g>
				<g>
					<polygon fill="none" points="923.627,178.054 924.821,179.924 925.927,181.847 929.89,179.615 928.712,177.567
						927.441,175.575 					"/>
					<path fill-rule="evenodd" clip-rule="evenodd" fill="#E1E03E" d="M927.909,180.731c-1.097,0.609-2.482,0.249-3.088-0.807
						c-0.65-1.03-0.336-2.418,0.714-3.109c1.046-0.688,2.477-0.357,3.176,0.752C929.366,178.704,929.005,180.122,927.909,180.731z"
						/>
				</g>
			</g>
			<g>
				<g>
					<path fill="none" d="M927.804,185.399c0.635,1.334,1.256,2.679,1.82,4.044l4.204-1.736c-0.601-1.455-1.261-2.888-1.939-4.309
						L927.804,185.399z"/>
					<path fill-rule="evenodd" clip-rule="evenodd" fill="#E1E03E" d="M931.727,188.575c-1.151,0.467-2.475-0.061-2.99-1.164
						c-0.494-1.113,0-2.46,1.111-3.012c1.136-0.564,2.503-0.056,3.036,1.143C933.438,186.732,932.901,188.099,931.727,188.575z"/>
				</g>
			</g>
			<g>
				<g>
					<polygon fill="none" points="931.042,193.202 931.754,195.303 932.36,197.436 936.744,196.224 936.097,193.951 935.34,191.712
											"/>
					<path fill-rule="evenodd" clip-rule="evenodd" fill="#E1E03E" d="M934.553,196.83c-1.212,0.328-2.466-0.356-2.799-1.527
						c-0.391-1.153,0.255-2.428,1.439-2.846c1.182-0.418,2.485,0.25,2.905,1.494C936.458,195.212,935.763,196.503,934.553,196.83z"
						/>
				</g>
			</g>
			<g>
				<g>
					<path fill="none" d="M933.324,201.336c0.324,1.442,0.55,2.906,0.803,4.362l4.499-0.672c-0.268-1.551-0.51-3.11-0.855-4.647
						L933.324,201.336z"/>
					<path fill-rule="evenodd" clip-rule="evenodd" fill="#E1E03E" d="M936.378,205.362c-1.225,0.176-2.417-0.651-2.63-1.85
						c-0.196-1.203,0.585-2.386,1.8-2.655c1.234-0.273,2.462,0.544,2.675,1.84C938.453,203.989,937.636,205.181,936.378,205.362z"/>
				</g>
			</g>
			<g>
				<g>
					<path fill="none" d="M934.597,209.689c0.108,1.475,0.251,2.949,0.256,4.43l4.547-0.128c-0.007-1.575-0.156-3.144-0.273-4.715
						L934.597,209.689z"/>
					<path fill-rule="evenodd" clip-rule="evenodd" fill="#E1E03E" d="M937.128,214.054c-1.269,0.029-2.267-0.939-2.362-2.153
						c-0.093-1.215,0.849-2.298,2.098-2.419c1.248-0.121,2.344,0.84,2.443,2.148C939.406,212.938,938.366,214.027,937.128,214.054z"
						/>
				</g>
			</g>
		</g>
	</g>
</g>
<g opacity="0.99">
	<g>
		<path fill="#DDDC26" d="M935.679,432c-0.281,29.519-18.865,56.541-46.884,66.451c-27.645,9.778-59.086,1.086-77.852-21.402
			c-18.973-22.737-21.459-56.031-6.193-81.382c15.21-25.259,45.447-38.637,74.374-32.789
			C911.87,369.499,935.363,398.797,935.679,432c0.018,1.929,3.018,1.934,3,0c-0.29-30.456-19.19-58.155-47.84-68.89
			c-29.024-10.876-62.805-1.73-82.434,22.22c-19.476,23.762-22.125,58.147-6.245,84.518c15.812,26.259,47.02,40.088,77.1,34.301
			c34.346-6.607,59.089-37.452,59.42-72.148C938.698,430.069,935.698,430.067,935.679,432z"/>
	</g>
</g>
<polygon fill="#DDDC26" points="599.294,176.17 599.294,187.013 620.979,165.328 599.294,143.643 599.294,154.485 577.609,154.485
	577.609,176.17 "/>
<polygon fill="#DDDC26" points="630.685,231.335 577.609,231.335 577.609,246.499 645.85,246.499 645.85,261.664 676.179,238.917
	645.85,216.17 645.85,231.335 "/>
<g>

		<line opacity="0.99" fill="none" stroke="#DDDC26" stroke-width="3" stroke-miterlimit="10" stroke-dasharray="3" x1="216" y1="179.588" x2="145.5" y2="179.588"/>

		<line opacity="0.99" fill="none" stroke="#DDDC26" stroke-width="3" stroke-miterlimit="10" stroke-dasharray="3" x1="216" y1="216" x2="144.5" y2="189.5"/>

		<line opacity="0.99" fill="none" stroke="#DDDC26" stroke-width="3" stroke-miterlimit="10" stroke-dasharray="3" x1="216" y1="144.583" x2="144" y2="170.213"/>
</g>
<g>

		<line opacity="0.99" fill="none" stroke="#DDDC26" stroke-width="3" stroke-miterlimit="10" x1="216" y1="323.088" x2="145.5" y2="323.088"/>

		<line opacity="0.99" fill="none" stroke="#DDDC26" stroke-width="3" stroke-miterlimit="10" x1="216" y1="359.5" x2="144.5" y2="333"/>

		<line opacity="0.99" fill="none" stroke="#DDDC26" stroke-width="3" stroke-miterlimit="10" x1="216" y1="288.083" x2="144" y2="313.713"/>
</g>
<polygon fill="#DDDC26" points="576,436.062 576,445.062 603,445.062 603,449.156 621,440.562 603,432 603,436.062 "/>
<g>
	<g>
		<path fill="#DDDC26" d="M647.505,347.287l-15.119-10.383c-0.547-0.375-0.709-1.157-0.362-1.744
			c0.348-0.587,1.078-0.758,1.62-0.387l16.671,11.449c0.336,0.232,0.542,0.634,0.542,1.066c0,0.432-0.206,0.834-0.542,1.066
			l-16.671,11.449c-0.197,0.133-0.414,0.197-0.629,0.197c-0.387,0-0.767-0.207-0.991-0.585c-0.348-0.587-0.185-1.369,0.362-1.744"/>
	</g>

		<line opacity="0.99" fill="#DDDC26" stroke="#DDDC26" stroke-width="3" stroke-miterlimit="10" x1="578.761" y1="347.288" x2="648.094" y2="347.288"/>
</g>
<g>
	<polygon fill="#66CC00" points="620.475,525.541 621.504,529.502 627.368,519.521 617.387,513.658 618.416,517.619
		610.494,519.678 612.553,527.6 	"/>
	<polygon fill="#DDDC26" points="603.239,537.473 604.269,541.434 610.132,531.454 600.151,525.591 601.181,529.551 593.259,531.61
		595.318,539.532 	"/>
	<polygon fill="#01A3FE" points="589.305,518.005 590.334,521.966 596.198,511.985 586.217,506.122 587.246,510.083
		579.325,512.142 581.383,520.063 	"/>
	<polygon fill="#29E4B6" points="640.382,516.051 641.412,520.012 647.275,510.031 637.294,504.168 638.324,508.129
		630.402,510.188 632.46,518.11 	"/>
	<polygon fill="#29E4B6" points="640.962,606.646 648.629,614.312 648.629,583.645 617.962,583.645 625.629,591.312
		610.295,606.646 625.629,621.979 	"/>
	<polygon fill="#DDDC26" points="627.009,547.299 576,561.968 580.191,576.542 645.774,557.682 649.965,572.255 672.826,542.012
		637.392,528.534 641.583,543.107 	"/>
	<polygon fill="#66CC00" points="660.202,580.185 666.566,586.549 685.658,567.457 688.553,570.352 695.204,551.547
		676.422,558.221 679.294,561.093 	"/>
	<polygon fill="#FF5100" points="687.334,511.852 665.991,517.99 667.744,524.088 695.186,516.196 696.94,522.294 706.505,509.64
		691.679,504 693.432,510.098 	"/>
	<g>
		<path fill="#A32E3E" d="M686.37,592.431l-13.991,2.598c-0.506,0.094-1.024-0.246-1.155-0.759
			c-0.131-0.513,0.176-1.007,0.676-1.101l15.427-2.865c0.312-0.057,0.645,0.05,0.882,0.287c0.237,0.237,0.345,0.571,0.287,0.882
			l-2.865,15.427c-0.035,0.181-0.119,0.336-0.237,0.454c-0.212,0.212-0.534,0.307-0.864,0.223c-0.513-0.131-0.853-0.65-0.759-1.155"
			/>
	</g>

		<rect x="640.779" y="609.627" transform="matrix(0.7071 -0.7071 0.7071 0.7071 -236.5745 651.1131)" opacity="0.99" fill="#A32E3E" width="53.794" height="3"/>
	<g>
		<path fill="#A32E3E" d="M610.102,584.742l-10.804-2.696c-0.391-0.097-0.649-0.508-0.576-0.915c0.073-0.408,0.452-0.66,0.839-0.564
			l11.913,2.972c0.24,0.061,0.443,0.246,0.535,0.491c0.092,0.246,0.06,0.518-0.082,0.721l-7.051,10.051
			c-0.084,0.118-0.194,0.2-0.316,0.246c-0.22,0.082-0.48,0.045-0.688-0.122c-0.323-0.26-0.396-0.74-0.165-1.069"/>
	</g>

		<rect x="580.416" y="589.091" transform="matrix(0.9369 -0.3497 0.3497 0.9369 -168.7186 245.6621)" opacity="0.99" fill="#A32E3E" width="31" height="1.894"/>
	<g>
		<path fill="#DDDC26" d="M716.71,527.82l-10.804-2.696c-0.391-0.097-0.649-0.508-0.576-0.915c0.073-0.408,0.452-0.66,0.839-0.564
			l11.913,2.972c0.24,0.061,0.443,0.246,0.535,0.491c0.092,0.246,0.06,0.518-0.082,0.721l-7.051,10.051
			c-0.084,0.118-0.194,0.2-0.316,0.246c-0.22,0.082-0.48,0.045-0.688-0.122c-0.323-0.26-0.396-0.74-0.165-1.069"/>
	</g>

		<rect x="687.024" y="532.169" transform="matrix(0.9369 -0.3497 0.3497 0.9369 -142.0799 279.3503)" fill="#DDDC26" width="31" height="1.894"/>
</g>
<g>
	<g>
		<path fill="#DDDC26" d="M359.711,287.353l-10.383,15.119c-0.375,0.547-1.157,0.709-1.744,0.362
			c-0.587-0.348-0.758-1.078-0.387-1.62l11.449-16.671c0.232-0.336,0.634-0.542,1.066-0.542c0.432,0,0.834,0.206,1.066,0.542
			l11.449,16.671c0.133,0.197,0.197,0.414,0.197,0.629c0,0.387-0.207,0.767-0.585,0.991c-0.587,0.348-1.369,0.185-1.745-0.362"/>
	</g>
	<polyline opacity="0.99" fill="none" stroke="#DDDC26" stroke-width="3" stroke-miterlimit="10" stroke-dasharray="4" points="
		360,288 360,360 432,360 432,432 	"/>
	<g>
		<path fill="#DDDC26" d="M438.333,431.899c0,3.441-2.791,6.232-6.232,6.232s-6.232-2.791-6.232-6.232
			c0-3.441,2.791-6.232,6.232-6.232S438.333,428.457,438.333,431.899z"/>
	</g>
</g>
<g>
	<polyline opacity="0.99" fill="none" stroke="#DDDC26" stroke-width="3" stroke-miterlimit="10" stroke-dasharray="4" points="
		454.194,143.774 360,144 360,216 	"/>
	<g>
		<path fill="#DDDC26" d="M455.969,143.642l-15.119-10.383c-0.547-0.375-0.709-1.157-0.362-1.744
			c0.348-0.587,1.078-0.758,1.62-0.387l16.671,11.449c0.336,0.232,0.542,0.634,0.542,1.066s-0.206,0.834-0.542,1.066l-16.671,11.449
			c-0.197,0.133-0.414,0.197-0.629,0.197c-0.387,0-0.767-0.207-0.991-0.585c-0.348-0.587-0.185-1.369,0.362-1.744"/>
	</g>
	<g>
		<path fill="#DDDC26" d="M365.899,216.17c0,3.441-2.791,6.232-6.232,6.232c-3.441,0-6.232-2.791-6.232-6.232
			c0-3.441,2.791-6.232,6.232-6.232C363.108,209.938,365.899,212.729,365.899,216.17z"/>
	</g>
</g>
</svg>
