<?xml version="1.0" encoding="utf-8"?>
<!-- Generator: Adobe Illustrator 22.1.0, SVG Export Plug-In . SVG Version: 6.00 Build 0)  -->
<svg version="1.1" id="iconos" xmlns="http://www.w3.org/2000/svg" xmlns:xlink="http://www.w3.org/1999/xlink" x="0px" y="0px"
	 viewBox="0 0 260.22 260.22" enable-background="new 0 0 260.22 260.22" xml:space="preserve">
<path d="M151.795,32.554c0-11.986-9.697-21.703-21.659-21.703c-11.962,0-21.659,9.717-21.659,21.703
	c0,8.032,4.357,15.039,10.829,18.792V86.81h21.659V51.346C147.438,47.593,151.795,40.585,151.795,32.554z"/>
<polygon fill="#FF5100" points="151.883,21.703 151.883,10.851 141.032,10.851 141.032,0 119.329,0 119.329,10.851 108.478,10.851 
	108.478,21.703 97.627,21.703 97.627,32.554 108.425,32.554 108.425,43.405 119.329,43.405 119.329,32.554 119.329,32.528 
	119.329,21.703 141.032,21.703 141.032,32.554 141.032,43.37 151.795,43.37 151.795,32.554 162.734,32.554 162.734,21.703 "/>
<path fill="#DDDC26" d="M86.74,86.705v43.405H43.37C43.37,130.11,43.37,86.705,86.74,86.705z"/>
<path fill="#DDDC26" d="M173.48,86.74v43.405h43.51C216.991,130.145,216.991,86.74,173.48,86.74z"/>
<rect x="86.74" y="86.74" fill="#DDDC26" width="86.845" height="83.036"/>
<rect x="195.288" y="184.472" fill="#29E4B6" width="10.851" height="75.748"/>
<rect x="54.221" y="173.621" fill="#29E4B6" width="10.851" height="86.6"/>
<rect x="43.37" y="173.48" fill="#29E4B6" width="173.621" height="10.992"/>
<rect x="86.775" y="184.472" fill="#01A3FE" width="32.554" height="64.906"/>
<rect x="141.032" y="184.472" fill="#01A3FE" width="32.554" height="64.906"/>
<rect x="184.437" y="130.216" width="21.703" height="43.405"/>
<rect x="54.221" y="130.11" width="21.703" height="43.37"/>
<path fill="#FF5100" d="M119.329,260.22H86.777c0,0-0.501-16.066,16.276-16.066C119.329,244.155,119.329,260.22,119.329,260.22z"/>
<path fill="#FF5100" d="M173.586,260.22h-32.552c0,0-0.501-16.066,16.276-16.066C173.586,244.155,173.586,260.22,173.586,260.22z"/>
<g>
	<path fill="none" d="M123.083,79.604v-0.162c-0.029,0.012-0.06,0.024-0.089,0.037C123.022,79.52,123.056,79.565,123.083,79.604z"/>
	<path fill="none" d="M141.656,94.373c1.518-1.667,3.838-3.676,7.154-5.265c-2.858-0.219-5.22-0.886-7.154-1.756V94.373z"/>
	<path fill="none" d="M117.921,86.057c1.95,0.523,3.663,1.209,5.161,1.978v-6.676C122.321,82.466,120.698,84.42,117.921,86.057z"/>
	<path fill="none" d="M141.656,73.616v0.734c0.123-0.055,0.258-0.105,0.385-0.159C141.883,73.969,141.751,73.771,141.656,73.616z"/>
	<path fill="#66CC00" d="M161.883,86.386c-2.588,1.542-6.178,2.806-11.044,2.806c-0.706,0-1.376-0.035-2.029-0.085
		c-3.316,1.589-5.637,3.599-7.154,5.265v-7.021c-4.4-1.978-6.573-4.977-7.25-6.073v20.756c1.176-1.291,2.834-2.787,5.063-4.136
		c0.677-0.409,1.403-0.805,2.187-1.176c3.259-1.544,7.465-2.678,12.808-2.678c15.153,0,21.198,9.103,22.243,10.898
		c5.357-3.242,7.419-7.353,7.419-7.353h0.002C184.127,97.589,178.559,86.462,161.883,86.386z"/>
	<path fill="#66CC00" d="M122.994,79.479c0.029-0.012,0.06-0.024,0.089-0.037v-7.031h7.25h0.308h3.765v8.015
		c0.676-1.095,2.848-4.096,7.25-6.076v-0.734c0.096,0.155,0.228,0.352,0.385,0.575c2.317-0.982,5.204-1.681,8.8-1.681
		c9.825,0,14.491,5.13,16.049,7.339c5.744-2.435,7.881-6.659,7.881-6.659h0.001c0,0-4.17-8.341-16.681-8.341
		c-10.821,0-15.395,6.23-16.435,7.916v-8.015h-11.323v7.193c-1.468-2.135-6.129-7.464-16.138-7.464
		c-12.511,0-16.682,8.341-16.682,8.341h0.002c0,0,0.207,0.398,0.632,1.001c2.316-0.982,5.203-1.681,8.798-1.681
		C116.77,72.14,121.437,77.271,122.994,79.479z"/>
	<path fill="#66CC00" d="M123.083,101.476V88.035c-1.498-0.769-3.211-1.454-5.161-1.978c-2.583,1.523-6.155,2.764-10.975,2.764
		c-3.631,0-6.54-0.712-8.867-1.709c-7.985,3.245-10.92,9.106-10.92,9.106h0.002c0,0,0.056,0.112,0.17,0.307
		c3.487-2.11,8.365-3.853,14.991-3.853C114.113,92.673,120.385,98.184,123.083,101.476z"/>
	<path fill="#66CC00" d="M141.656,162.472V113.78c-3.367-1.596-5.717-3.628-7.25-5.311v54.003H141.656z"/>
	<path fill="#01A3FE" d="M142.041,74.192c-0.127,0.054-0.262,0.104-0.385,0.159v13.001c1.934,0.87,4.296,1.537,7.154,1.756
		c3.272-1.568,7.508-2.725,12.903-2.725c0.058,0,0.112,0.003,0.17,0.003c4.067-2.423,5.638-5.535,5.638-5.535h0.001
		c0,0-0.207-0.398-0.633-1.002c-2.317,0.982-5.204,1.681-8.801,1.681C148.266,81.53,143.598,76.4,142.041,74.192z"/>
	<path fill="#008201" d="M150.841,72.51c-3.596,0-6.483,0.699-8.8,1.681c1.558,2.209,6.225,7.339,16.049,7.339
		c3.596,0,6.484-0.699,8.801-1.681C165.332,77.64,160.666,72.51,150.841,72.51z"/>
	<path fill="#008201" d="M148.81,89.107c0.653,0.05,1.324,0.085,2.029,0.085c4.865,0,8.456-1.265,11.044-2.806
		c-0.058,0-0.112-0.003-0.17-0.003C156.317,86.382,152.082,87.539,148.81,89.107z"/>
	<path fill="#01A3FE" d="M141.656,100.808v12.973c3.258,1.544,7.464,2.677,12.805,2.677c16.812,0,22.414-11.207,22.414-11.207h0.002
		c0,0-0.057-0.112-0.171-0.309c-3.487,2.11-8.366,3.854-14.995,3.854C150.85,108.796,144.671,104.119,141.656,100.808z"/>
	<path fill="#008201" d="M123.083,104.403c0.521-0.268,1.013-0.546,1.483-0.831c2.716-1.643,4.585-3.506,5.767-4.948v63.847h4.073
		v-54.003c1.533,1.683,3.883,3.715,7.25,5.311v-12.973c3.016,3.311,9.195,7.989,20.055,7.989c6.628,0,11.508-1.744,14.995-3.854
		c-1.045-1.795-7.09-10.898-22.243-10.898c-5.343,0-9.549,1.134-12.808,2.678c-0.784,0.372-1.51,0.767-2.187,1.176
		c-2.229,1.349-3.887,2.845-5.063,4.136V81.278c0.677,1.097,2.85,4.095,7.25,6.073V74.351c-4.402,1.98-6.574,4.981-7.25,6.076
		v-8.015h-11.323v7.031c4.075-1.751,6.315-4.385,7.25-5.745v20.117c-1.386-1.691-3.713-3.964-7.25-5.78v13.441
		c-2.698-3.293-8.97-8.803-20.76-8.803c-6.626,0-11.505,1.743-14.991,3.853c1.042,1.792,7.084,10.9,22.244,10.9
		C115.307,107.426,119.734,106.121,123.083,104.403z"/>
	<path fill="#01A3FE" d="M117.921,86.057c2.777-1.637,4.4-3.591,5.161-4.698v6.676c3.537,1.815,5.864,4.088,7.25,5.78V73.698
		c-0.935,1.359-3.175,3.994-7.25,5.745v0.162c-0.027-0.039-0.06-0.084-0.089-0.125c-2.317,0.982-5.203,1.681-8.798,1.681
		c-9.827,0-14.493-5.131-16.049-7.339c-5.746,2.434-7.884,6.66-7.884,6.66h0.002c0,0,2.12,4.193,7.814,6.632
		c3.054-1.241,6.843-2.1,11.494-2.1C112.741,85.012,115.511,85.411,117.921,86.057z"/>
	<path fill="#008201" d="M114.196,81.16c3.595,0,6.481-0.699,8.798-1.681c-1.557-2.208-6.224-7.339-16.049-7.339
		c-3.595,0-6.481,0.699-8.798,1.681C99.703,76.029,104.369,81.16,114.196,81.16z"/>
	<path fill="#008201" d="M117.921,86.057c-2.41-0.646-5.18-1.045-8.349-1.045c-4.651,0-8.44,0.86-11.494,2.1
		c2.328,0.997,5.237,1.709,8.867,1.709C111.767,88.821,115.338,87.58,117.921,86.057z"/>
	<path fill="#01A3FE" d="M123.083,106.287v56.186h7.25V98.625c-1.182,1.442-3.051,3.304-5.767,4.948
		c-0.47,0.284-0.961,0.563-1.483,0.831c-3.349,1.718-7.776,3.022-13.508,3.022c-15.159,0-21.201-9.108-22.244-10.9
		c-5.359,3.243-7.422,7.354-7.422,7.354h0.002c0,0,5.601,11.207,22.414,11.207C114.111,115.087,120.383,109.58,123.083,106.287z"/>
</g>
<polygon fill="#A32E3E" points="108.478,119.364 162.734,119.364 155.952,173.621 115.26,173.621 "/>
<rect x="141.032" y="151.918" width="54.256" height="21.703"/>
<rect x="54.221" y="151.918" width="65.108" height="21.562"/>
</svg>
