<?xml version="1.0" encoding="utf-8"?>
<!-- Generator: Adobe Illustrator 22.1.0, SVG Export Plug-In . SVG Version: 6.00 Build 0)  -->
<svg version="1.1" id="iconos" xmlns="http://www.w3.org/2000/svg" xmlns:xlink="http://www.w3.org/1999/xlink" x="0px" y="0px"
	 viewBox="0 0 260.22 260.22" enable-background="new 0 0 260.22 260.22" xml:space="preserve">
<path fill="#A32E3E" d="M108.425,54.213c0,0,10.843,0,10.843-10.843V32.528h10.843l-10.843-10.843H86.74V86.74h21.685V54.213z"/>
<path fill="#66CC00" d="M119.268,21.685c0-10.843-10.843-10.843-10.843-10.843h-11c-32.37,0-32.37,21.685-32.37,21.685v21.685h32.37
	V21.685h0.478l0,0H119.268z"/>
<rect x="54.213" y="162.638" width="10.843" height="97.583"/>
<rect x="54.213" y="216.85" width="54.213" height="10.843"/>
<rect x="97.583" y="216.85" width="10.843" height="43.37"/>
<rect x="65.055" y="238.535" width="32.528" height="10.843"/>
<rect x="173.48" y="249.378" fill="none" width="21.685" height="10.843"/>
<rect x="151.795" y="249.378" fill="#A32E3E" width="32.528" height="10.843"/>
<rect x="184.323" y="249.378" fill="#A32E3E" width="32.528" height="10.843"/>
<rect x="151.795" y="238.535" fill="#FF5100" width="10.843" height="10.843"/>
<path fill="#29E4B6" d="M184.323,173.48c-10.843,0-10.843,0-10.843,0h-65.055H75.898v21.685c0,0,0,21.685,16.264,21.685
	c16.264,0,16.264,0,16.264,0h43.37v21.685h21.685V216.85c0,0,0-21.685-21.685-21.685h-43.37v-10.843h65.055
	c0,0,10.843,0,10.843,10.843v43.37h21.685v-43.37C206.008,195.165,206.008,173.48,184.323,173.48z"/>
<rect x="184.323" y="238.535" fill="#FF5100" width="10.843" height="10.843"/>
<path fill="#01A3FE" d="M92.163,81.32c-27.939,0-27.105,27.105-27.105,27.105h-0.002v65.055h54.212v-65.055
	C119.268,108.425,119.268,81.32,92.163,81.32z"/>
<path fill="#DDDC26" d="M75.898,108.445h21.685v10.843c0,0,0,10.843,10.843,10.843s43.37,0,43.37,0v21.665h-44.366
	c0,0-31.532,0.02-31.532-32.508C75.898,108.445,75.898,108.445,75.898,108.445z"/>
<g>
	<polygon fill="#A32E3E" points="163.361,153.372 174.926,153.372 174.926,130.241 163.361,130.241 151.795,130.241 
		151.795,141.806 163.361,141.806 	"/>
</g>
<g>
	<rect x="186.491" y="130.241" fill="#FF5100" width="6.101" height="34.565"/>
	<polygon fill="#FF5100" points="186.491,176.372 157.897,176.372 157.897,164.937 151.795,164.937 151.795,176.502 
		186.491,176.502 198.057,176.502 198.057,176.372 192.593,176.372 	"/>
	<polygon fill="#01A3FE" points="192.593,130.11 192.593,130.241 198.057,130.241 198.057,164.806 192.593,164.806 186.491,164.806 
		157.897,164.806 157.897,164.937 186.491,164.937 192.593,164.937 198.057,164.937 198.057,176.372 204.158,176.372 
		204.158,164.806 204.158,130.11 	"/>
	<rect x="192.593" y="130.241" fill="#013400" width="5.464" height="35.419"/>
	<polygon fill="#013400" points="192.593,164.937 186.491,164.937 157.897,164.937 157.897,176.372 186.491,176.372 
		192.593,176.372 198.057,176.372 198.057,164.937 	"/>
</g>
</svg>
