<?xml version="1.0" encoding="utf-8"?>
<!-- Generator: Adobe Illustrator 22.1.0, SVG Export Plug-In . SVG Version: 6.00 Build 0)  -->
<svg version="1.1" id="iconos" xmlns="http://www.w3.org/2000/svg" xmlns:xlink="http://www.w3.org/1999/xlink" x="0px" y="0px"
	 viewBox="0 0 260.22 260.22" enable-background="new 0 0 260.22 260.22" xml:space="preserve">
<g>
	<circle fill="#DDDC26" cx="130.11" cy="24.396" r="16.264"/>
	<rect x="121.978" y="32.528" fill="#DDDC26" width="16.264" height="32.528"/>
	<path d="M130.11,0c-24.396,0-24.396,24.396-24.396,24.396v32.528h8.132V24.396L130.11,8.132l16.264,16.264v32.528h8.132V24.396
		C154.506,24.396,154.506,0,130.11,0z"/>
	<path d="M105.715,56.923h8.131c0,0,0.125,5.082-4.066,5.082C105.715,62.005,105.715,56.923,105.715,56.923z"/>
	<path d="M146.374,56.923h8.131c0,0,0.125,5.082-4.066,5.082C146.374,62.005,146.374,56.923,146.374,56.923z"/>
</g>
<path fill="#DDDC26" d="M130.11,151.795l32.527,0l32.528,43.37l10.843,43.37l10.842,0l0,10.842l-32.527,0l0-10.842
	c0,0-21.685-21.685-21.685-43.37L130.11,151.795z"/>
<rect x="184.323" y="249.378" transform="matrix(-1 -1.302047e-06 1.302047e-06 -1 412.0152 509.5984)" fill="#66CC00" width="43.37" height="10.842"/>
<path fill="#DDDC26" d="M216.85,238.535l0,10.842l10.842,0C227.693,249.378,227.693,238.535,216.85,238.535z"/>
<path fill="#DDDC26" d="M130.11,151.795H97.583l-32.528,43.37l-10.843,43.37H43.37v10.843h32.528v-10.843
	c0,0,21.685-21.685,21.685-43.37L130.11,151.795z"/>
<rect x="86.74" y="140.953" fill="#A32E3E" width="86.74" height="10.843"/>
<polygon fill="#A32E3E" points="86.74,151.795 65.055,184.323 119.268,184.323 130.11,165.348 140.953,184.323 195.165,184.323 
	173.48,151.795 "/>
<rect x="32.528" y="249.378" fill="#66CC00" width="43.37" height="10.843"/>
<path fill="#DDDC26" d="M43.37,238.535v10.843H32.528C32.528,249.378,32.528,238.535,43.37,238.535z"/>
<rect x="43.37" y="238.535" fill="#01A3FE" width="10.843" height="21.685"/>
<rect x="206.008" y="238.535" fill="#01A3FE" width="10.843" height="21.685"/>
<g>
	<path fill="#DDDC26" d="M216.85,86.74l0,10.843h10.843C227.693,97.583,227.693,86.74,216.85,86.74z"/>
	<path fill="#DDDC26" d="M43.37,86.74v10.843H32.528C32.528,97.583,32.528,86.74,43.37,86.74z"/>
	<g>
		<rect x="43.37" y="48.37" fill="#FFFFFF" width="173.48" height="108.425"/>
		<path d="M216.85,151.795c-19.592,0-39.185,0-58.777,0c-31.051,0-62.102,0-93.153,0c-7.184,0-14.367,0-21.551,0
			c0.833,0.833,1.667,1.667,2.5,2.5c0-31.632,0-63.263,0-94.895c0-4.51,0-9.02,0-13.53c-0.833,0.833-1.667,1.667-2.5,2.5
			c19.592,0,39.185,0,58.777,0c31.051,0,62.102,0,93.153,0c7.184,0,14.367,0,21.551,0c-0.833-0.833-1.667-1.667-2.5-2.5
			c0,31.632,0,63.263,0,94.895c0,4.51,0,9.02,0,13.53c0,3.217,5,3.223,5,0c0-31.632,0-63.263,0-94.895c0-4.51,0-9.02,0-13.53
			c0-1.351-1.145-2.5-2.5-2.5c-19.592,0-39.185,0-58.777,0c-31.051,0-62.102,0-93.153,0c-7.184,0-14.367,0-21.551,0
			c-1.351,0-2.5,1.145-2.5,2.5c0,31.632,0,63.263,0,94.895c0,4.51,0,9.02,0,13.53c0,1.351,1.145,2.5,2.5,2.5
			c19.592,0,39.185,0,58.777,0c31.051,0,62.102,0,93.153,0c7.184,0,14.367,0,21.551,0
			C220.068,156.795,220.073,151.795,216.85,151.795z"/>
	</g>
	<polygon fill="#DDDC26" points="32.528,97.583 32.528,108.425 32.528,119.268 54.213,119.268 54.213,108.425 54.213,97.583 	"/>
	<polygon fill="#DDDC26" points="206.008,97.583 206.008,108.425 206.008,119.268 227.693,119.268 227.693,108.425 227.693,97.583 	
		"/>
</g>
<g>
	<polygon fill="#FF5100" points="133.511,105.268 144.11,105.268 144.11,58.873 120.913,58.873 120.913,63.394 133.511,63.394 	"/>
	<path fill="#FF5100" d="M140.713,115.985c-4.529-4.53-11.873-4.53-16.403,0c-0.383,0.383-0.721,0.792-1.039,1.212
		c2.5,0.293,4.925,1.39,6.843,3.309c4.147,4.147,4.485,10.646,1.039,15.191c3.403,0.399,6.949-0.697,9.56-3.309
		C145.243,127.858,145.243,120.514,140.713,115.985z"/>
	<polygon fill="#29E4B6" points="133.511,105.268 120.913,105.268 120.913,63.394 110.313,63.394 110.313,109.788 133.511,109.788 	
		"/>
	<rect x="120.913" y="63.394" fill="#A32E3E" width="12.598" height="41.874"/>
	<path fill="#29E4B6" d="M123.271,117.197c-3.404-0.399-6.949,0.697-9.56,3.309c-4.53,4.53-4.53,11.873,0,16.403
		c4.529,4.53,11.873,4.53,16.403,0c0.383-0.383,0.721-0.792,1.039-1.212c-2.5-0.293-4.925-1.39-6.843-3.309
		C120.163,128.241,119.825,121.742,123.271,117.197z"/>
	<path fill="#A32E3E" d="M130.114,120.505c-1.919-1.918-4.343-3.015-6.843-3.309c-3.446,4.545-3.107,11.045,1.039,15.191
		c1.918,1.918,4.343,3.015,6.843,3.309C134.598,131.151,134.26,124.652,130.114,120.505z"/>
</g>
</svg>
